<svg width="78" height="78" viewBox="0 0 78 78" fill="none" xmlns="http://www.w3.org/2000/svg">
<g id="BG">
<path id="Vector 30" opacity="0.4" d="M13.9184 16.9403L5.07168 27.0141C1.78927 30.7518 2.716 36.5533 6.99947 39.0824L7.21121 39.2074C11.5885 41.792 12.3315 47.8212 8.7126 51.3911C5.98953 54.0773 5.63511 58.349 7.87824 61.4473L11.471 66.4096C16.6306 73.5361 26.8134 74.6545 33.3968 68.8177L42.2054 61.0081C45.8418 57.7842 50.3608 55.724 55.1795 55.0934L61.614 54.2513C73.1512 52.7415 80.5676 41.2289 77.1726 30.0997C75.075 23.2237 69.2436 18.1433 62.145 17.0076L52.6453 15.4878C49.4597 14.9782 46.4604 13.6522 43.9395 11.639L35.929 5.24176C29.01 -0.283847 18.6939 3.22834 16.5839 11.828C16.1193 13.7216 15.2049 15.4752 13.9184 16.9403Z" fill="#7300FF"/>
<path id="Vector 31" opacity="0.4" d="M71.2053 47.1368L63.2778 30.1339C61.9793 27.3487 61.3063 24.313 61.3063 21.24C61.3063 9.09337 51.0533 -0.531924 38.9309 0.234533L27.6583 0.947261C17.0662 1.61696 9.80581 11.906 12.7249 22.1098L13.988 26.5249C15.1253 30.5005 13.6885 34.7655 10.3773 37.2424C5.68402 40.7533 5.02085 47.5373 8.94538 51.8906L19.7248 63.8478C22.1765 66.5674 25.2033 68.7067 28.5852 70.1104L43.3323 76.2311C51.105 79.4571 60.0434 77.8779 66.2402 72.1839C73.1776 65.8095 75.1864 55.6756 71.2053 47.1368Z" fill="#1236FF"/>
<path id="Vector 32" opacity="0.4" d="M45.2997 3.52916L32.1791 0.894544C27.3068 -0.0838032 22.7467 3.62344 22.7018 8.59936L22.6995 8.85176C22.6536 13.9333 17.8077 17.593 12.9164 16.24C9.23442 15.2216 5.36017 17.0526 3.80323 20.5469L1.29618 26.1737C-2.28092 34.202 1.82721 43.5646 10.15 46.3518L21.3551 50.1043C25.9562 51.6451 29.9906 54.5295 32.9392 58.3863L36.9175 63.5901C43.9766 72.8236 57.6363 73.4826 65.562 64.9721C70.4541 59.719 71.9331 52.137 69.3735 45.4318L65.9236 36.3947C64.7721 33.3783 64.4194 30.1145 64.8998 26.9202L66.4305 16.74C67.7473 7.98336 59.5607 0.813382 51.0666 3.28397C49.1917 3.82931 47.2134 3.91342 45.2997 3.52916Z" fill="#1236FF"/>
<path id="Vector 33" opacity="0.4" d="M47.8681 68.2817L58.5736 52.9488C60.335 50.426 62.6276 48.3206 65.2897 46.7812C75.7879 40.7101 78.9959 27.0308 72.2909 16.927L65.9724 7.40558C60.1148 -1.4213 47.6023 -2.55581 40.2448 5.07286L37.0585 8.37652C34.1876 11.3532 29.778 12.2423 25.9832 10.6095C20.6043 8.29519 14.3997 11.1173 12.5983 16.6975L7.64744 32.0341C6.52491 35.5114 6.18928 39.1947 6.66488 42.8168L8.75487 58.7338C9.84886 67.0654 15.6653 74.0044 23.67 76.5275C32.6653 79.3629 42.462 76.0245 47.8681 68.2817Z" fill="#B812FF"/>
</g>
</svg>
